<?xml version="1.0" encoding="utf-8"?>
<!-- Generator: Adobe Illustrator 23.0.2, SVG Export Plug-In . SVG Version: 6.00 Build 0)  -->
<svg version="1.1" id="Layer_1" xmlns="http://www.w3.org/2000/svg" xmlns:xlink="http://www.w3.org/1999/xlink" x="0px" y="0px"
	 viewBox="0 0 18 14" style="enable-background:new 0 0 18 14;" xml:space="preserve">
<style type="text/css">
	.st0{fill:#333333;}
	.st1{clip-path:url(#SVGID_2_);}
</style>
<g id="arrow-right" transform="translate(-3 -5)">
	<path id="Combined_Shape-2" class="st0" d="M13.3,18.7c-0.4-0.4-0.4-1,0-1.4l4.3-4.3H4c-0.6,0-1-0.4-1-1s0.4-1,1-1h13.6l-4.3-4.3
		c-0.4-0.4-0.4-1,0-1.4c0.4-0.4,1-0.4,1.4,0l6,6c0.1,0.1,0.1,0.1,0.2,0.2l0,0l0,0v0l0,0l0,0v0l0,0l0,0c0.1,0.3,0.1,0.6,0,0.8l0,0
		l0,0v0l0,0l0,0v0l0,0v0l0,0l0,0l0,0l0,0l0,0l0,0l0,0l0,0l0,0l0,0l0,0v0l0,0l0,0l0,0l0,0l0,0l0,0l-6,6
		C14.3,19.1,13.7,19.1,13.3,18.7L13.3,18.7z"/>
	<g>
		<defs>
			<path id="SVGID_1_" d="M13.3,18.7c-0.4-0.4-0.4-1,0-1.4l4.3-4.3H4c-0.6,0-1-0.4-1-1s0.4-1,1-1h13.6l-4.3-4.3
				c-0.4-0.4-0.4-1,0-1.4c0.4-0.4,1-0.4,1.4,0l6,6c0.1,0.1,0.1,0.1,0.2,0.2l0,0l0,0v0l0,0l0,0v0l0,0l0,0c0.1,0.3,0.1,0.6,0,0.8l0,0
				l0,0v0l0,0l0,0v0l0,0v0l0,0l0,0l0,0l0,0l0,0l0,0l0,0l0,0l0,0l0,0l0,0v0l0,0l0,0l0,0l0,0l0,0l0,0l-6,6
				C14.3,19.1,13.7,19.1,13.3,18.7L13.3,18.7z"/>
		</defs>
		<use xlink:href="#SVGID_1_"  style="overflow:visible;fill:#333333;"/>
		<clipPath id="SVGID_2_">
			<use xlink:href="#SVGID_1_"  style="overflow:visible;"/>
		</clipPath>
		<g class="st1">
			<g id="_Color">
				<rect id="_Color_background" class="st0" width="24" height="24"/>
				<rect id="Rectangle" class="st0" width="24" height="24"/>
			</g>
		</g>
	</g>
</g>
</svg>
