<?xml version="1.0" encoding="utf-8"?>
<!-- Generator: Adobe Illustrator 24.1.1, SVG Export Plug-In . SVG Version: 6.00 Build 0)  -->
<svg version="1.1" id="Layer_1" xmlns="http://www.w3.org/2000/svg" xmlns:xlink="http://www.w3.org/1999/xlink" x="0px" y="0px"
	 viewBox="0 0 489.8 397.5" style="enable-background:new 0 0 489.8 397.5;" xml:space="preserve">
<style type="text/css">
	.st0{fill:#FFFFFF;stroke:#FFFFFF;stroke-width:5;stroke-miterlimit:10;}
</style>
<g>
	<g>
		<path class="st0" d="M327.4,228.9c-9.4-1.3-18.5-3.5-27.3-6.8c-9.7-3.7-20.8-1.3-28.3,6.1l-9.5,9.5c-21.3-13-39.3-30.9-52.3-52.2
			l9.5-9.5c7.3-7.4,9.7-18.5,6.1-28.2c-3.3-8.8-5.6-17.9-6.8-27.3c-1.8-13.2-13.3-23.3-26.7-23h-30.7c-0.8,0-1.6,0-2.4,0.1
			c-7.1,0.7-13.6,4.1-18.1,9.5c-4.6,5.5-6.8,12.4-6.1,19.7c3.5,32.3,14.7,63.9,32.3,91.1c16.1,25.3,37.9,47.1,63.2,63.1
			c27.2,17.7,58.6,28.7,91.1,32.3c0.9,0.1,1.6,0.1,2.5,0.1c7.1,0,13.9-2.8,18.9-7.9c5-5.1,7.8-11.8,7.8-18.9v-30.5
			C350.8,242.4,340.9,230.8,327.4,228.9z M337.8,255.9v30.6c0,3.8-1.4,7.2-4.1,9.9c-2.6,2.7-6.2,4.1-9.9,4.1c-0.5,0-0.9,0-1.3,0
			c-30.3-3.3-59.8-13.8-85.5-30.4c-23.7-15-44.3-35.6-59.4-59.3c-16.7-25.7-27.1-55.3-30.4-85.6c-0.4-3.8,0.8-7.4,3.2-10.2
			c2.4-2.9,5.8-4.6,9.5-5c0.4,0,0.9-0.1,1.3-0.1h30.8h0.1c6.9,0,12.9,5.2,14,12.1c1.4,10.2,3.9,20.4,7.5,30.1
			c1.9,5.1,0.7,10.9-3.2,14.8l-12.9,13c-2,2-2.4,5.1-1.1,7.6c15.1,26.5,37.1,48.5,63.7,63.6c2.5,1.4,5.6,1,7.6-1.1l12.9-12.9
			c3.9-3.9,9.7-5.1,14.9-3.2c9.7,3.6,19.9,6.2,30,7.4c7,1,12.2,7.1,12.2,14.3C337.8,255.8,337.8,255.8,337.8,255.9z"/>
	</g>
</g>
<g>
	<g>
		<path class="st0" d="M242.5,8.5C137.5,8.5,52,94,52,199c0,36.4,10.2,71.6,29.7,102l-29.3,79.9c-0.9,2.3-0.3,4.8,1.4,6.6
			c1.3,1.3,2.9,1.9,4.5,1.9c0.7,0,1.4-0.1,2-0.3l82.9-27.6c29.9,18.3,64.1,28,99.2,28C347.5,389.5,433,304,433,199
			S347.5,8.5,242.5,8.5z M242.5,376.9c-33.8,0-66.6-9.5-95.1-27.6c-1.1-0.7-2.2-1-3.4-1c-0.7,0-1.4,0.1-2,0.3L68.8,373l25.8-70.5
			c0.7-1.9,0.5-4-0.7-5.7c-19.1-29-29.2-62.9-29.2-97.8c0-98,79.8-177.8,177.8-177.8S420.4,101,420.4,199.1S340.6,376.9,242.5,376.9
			z"/>
	</g>
</g>
</svg>
