<?xml version="1.0" encoding="utf-8"?>
<!-- Generator: Adobe Illustrator 24.1.1, SVG Export Plug-In . SVG Version: 6.00 Build 0)  -->
<svg version="1.1" id="Layer_1" xmlns="http://www.w3.org/2000/svg" xmlns:xlink="http://www.w3.org/1999/xlink" x="0px" y="0px"
	 viewBox="0 0 489.8 397.5" style="enable-background:new 0 0 489.8 397.5;" xml:space="preserve">
<style type="text/css">
	.st0{fill:#FFFFFF;}
	.st1{fill:#FFFFFF;stroke:#FFFFFF;stroke-width:3.8;stroke-miterlimit:10;}
	.st2{fill:#FFFFFF;stroke:#FFFFFF;stroke-width:3.5;stroke-miterlimit:10;}
	.st3{fill:#FFFFFF;stroke:#000000;stroke-width:3.8;stroke-miterlimit:10;}
</style>
<g id="Tracking">
	<polygon class="st0" points="80,246.3 80,203.6 64,198.8 64,246.3 	"/>
	<path class="st0" d="M264,112v191.8h16V112h81.4c2.1,0,4.2,0.8,5.7,2.3l13.7,13.7H344c-8.8,0-16,7.2-16,16v72c0,8.8,7.2,16,16,16
		h120v2.2l16,0.3V208c0-2.1-0.8-4.2-2.3-5.7L378.3,103c-4.5-4.5-10.6-7.1-17-7H206.2l1.2,16H264z M464,211.3v4.7H344v-72h52.7
		L464,211.3z"/>
	<rect x="24" y="204" class="st0" width="40" height="16"/>
	<path class="st0" d="M104,208c57.4,0,104-46.6,104-104S161.4,0,104,0S0,46.6,0,104C0.1,161.4,46.6,207.9,104,208z M104,16
		c48.6,0,88,39.4,88,88s-39.4,88-88,88s-88-39.4-88-88C16.1,55.4,55.4,16.1,104,16z"/>
	<path class="st0" d="M104,176c2.1,0,4.2-0.8,5.7-2.3c5.2-5.2,50.3-51.3,50.3-85.7c0-30.9-25.1-56-56-56S48,57.1,48,88
		c0,34.3,45.2,80.5,50.3,85.7C99.8,175.2,101.9,176,104,176z M104,48c22.1,0,40,17.9,40,40c0,20.5-25.2,52.2-40,68.4
		C89.2,140.2,64,108.5,64,88C64,65.9,81.9,48,104,48z"/>
	<path class="st0" d="M128,88c0-13.3-10.7-24-24-24S80,74.7,80,88s10.7,24,24,24S128,101.3,128,88z M96,88c0-4.4,3.6-8,8-8
		s8,3.6,8,8s-3.6,8-8,8S96,92.4,96,88z"/>
</g>
<g>
	<path class="st1" d="M340.4,302.9H175.2c-9.6-9.1-22.6-14.8-36.9-14.8c-10.8,0-20.9,3.2-29.4,8.8v-16.5c0-10.1-8.2-18.3-18.3-18.3
		H78.1v-15.8H65.9v58.6c-5.9,3-9.9,9.2-9.9,16.3V334c0,10.1,8.2,18.3,18.3,18.3h11.3c4.9,24.7,26.7,43.3,52.7,43.3
		c26.1,0,47.9-18.7,52.7-43.3h161.8c4.9,24.7,26.7,43.3,52.7,43.3c26.1,0,47.9-18.7,52.7-43.3h11.3c10.1,0,18.3-8.2,18.3-18.3v-12.9
		c0-7.1-4-13.2-9.9-16.3V251c0-1.6,0.4-16.5,0.1-18l-12.2,0.7c0,2-0.1,15.7-0.1,17.3v19.8h-12.5c-10.1,0-18.3,8.2-18.3,18.3v7.8
		c-8.5-5.5-18.5-8.8-29.4-8.8c-14.3,0-27.3,5.6-36.9,14.8h-16.1L340.4,302.9L340.4,302.9z M78,274.4h12.5c3.4,0,6.1,2.7,6.1,6.1V303
		H78V274.4z M84.4,340.2H74.1c-3.4,0-6.1-2.7-6.1-6.1v-12.9c0-3.4,2.7-6.1,6.1-6.1h17.5C87.3,322.5,84.7,331.1,84.4,340.2z
		 M138.1,383.5c-22.9,0-41.6-18.6-41.6-41.6c0-22.9,18.6-41.6,41.6-41.6c22.9,0,41.6,18.6,41.6,41.6S161.1,383.5,138.1,383.5z
		 M351.9,340.1H192c-0.3-9.1-2.9-17.6-7.1-25H359C354.7,322.5,352.2,331,351.9,340.1z M405.4,383.5c-22.9,0-41.6-18.6-41.6-41.6
		c0-22.9,18.6-41.6,41.6-41.6S447,319,447,341.9S428.3,383.5,405.4,383.5z M447,289.1c0-3.4,2.7-6.1,6.1-6.1h12.5v19.9H447V289.1z
		 M475.6,334.1c0,3.4-2.7,6.1-6.1,6.1h-10.3c-0.3-9.1-2.9-17.6-7.1-25h17.5c3.4,0,6.1,2.7,6.1,6.1v12.8H475.6z"/>
	<path class="st2" d="M137.9,316.8c-13.9,0-25.2,11.3-25.2,25.2c0,13.9,11.3,25.2,25.2,25.2s25.2-11.3,25.2-25.2
		C163.1,328,151.8,316.8,137.9,316.8z M137.9,354.9c-7.2,0-13-5.8-13-13s5.8-13,13-13s13,5.8,13,13S145.1,354.9,137.9,354.9z"/>
	<path class="st2" d="M405.2,316.8c-13.9,0-25.2,11.3-25.2,25.2c0,13.9,11.3,25.2,25.2,25.2s25.2-11.3,25.2-25.2
		C430.4,328,419.1,316.8,405.2,316.8z M405.2,354.9c-7.2,0-13-5.8-13-13s5.8-13,13-13s13,5.8,13,13S412.4,354.9,405.2,354.9z"/>
</g>
<path class="st3" d="M340.3,301"/>
<rect x="24" y="249.4" class="st0" width="40" height="16"/>
<rect x="24" y="294.9" class="st0" width="40" height="16"/>
<rect x="9.7" y="249.4" class="st0" width="40" height="16"/>
</svg>
