<?xml version="1.0" encoding="utf-8"?>
<!-- Generator: Adobe Illustrator 24.1.1, SVG Export Plug-In . SVG Version: 6.00 Build 0)  -->
<svg version="1.1" id="Layer_1" xmlns="http://www.w3.org/2000/svg" xmlns:xlink="http://www.w3.org/1999/xlink" x="0px" y="0px"
	 viewBox="0 0 489.8 397.5" style="enable-background:new 0 0 489.8 397.5;" xml:space="preserve">
<style type="text/css">
	.st0{fill:#FFFFFF;stroke:#FFFFFF;stroke-width:5;stroke-miterlimit:10;}
</style>
<g>
	<path class="st0" d="M430.5,21.6L212.8,7c-7.1-0.5-13.2,4.9-13.7,12l-1.7,25.4h-28.9c-7.1,0-12.8,5.8-12.8,12.8v313.5
		c0,7.1,5.8,12.8,12.8,12.8h166.6c1.4,0,2.8-0.6,3.9-1.6l25.1-25c0.3,0.1,0.5,0.1,0.8,0.1l43,2.8c6.9,0.5,13.2-5.1,13.7-12l21-312.5
		C443,28.3,437.5,22,430.5,21.6L430.5,21.6z M340.6,364.9v-38.4c0-1,0.9-1.8,1.8-1.8h38.3L340.6,364.9z M410.6,347.3
		c-0.2,1.1-0.9,1.7-2,1.7l-34.1-2.3l23.4-23.3c1-1,1.6-2.5,1.6-3.9V57.4c0-7.1-5.8-12.8-12.8-12.8h-57.4c-7.2,0-7.2,11.1,0,11.1
		h57.4c1,0,1.8,0.9,1.8,1.8v256.2h-46c-7.1,0-12.8,5.8-12.8,12.8v46.2H168.4c-1,0-1.8-0.9-1.8-1.8V57.4c0-1,0.9-1.8,1.8-1.8h167.1
		c7.2,0,8.5-11.1,1.4-11.1H208.5l1.6-24.8c0.2-1.1,0.9-1.7,2-1.7l217.7,14.5c1.1,0.2,1.7,0.9,1.7,2L410.6,347.3z"/>
	<path class="st0" d="M352.8,181.4H202.1c-3,0-5.5,2.5-5.5,5.5c0,3,2.5,5.5,5.5,5.5h150.7c3,0,5.5-2.5,5.5-5.5
		C358.3,183.9,355.9,181.4,352.8,181.4z"/>
	<path class="st0" d="M352.8,220H202.1c-3,0-5.5,2.5-5.5,5.5c0,3,2.5,5.5,5.5,5.5h150.7c3,0,5.5-2.5,5.5-5.5
		C358.3,222.4,355.9,220,352.8,220z"/>
	<path class="st0" d="M196.7,148.5c0,3,2.5,5.5,5.5,5.5h150.7c3,0,5.5-2.5,5.5-5.5c0-3-2.5-5.5-5.5-5.5H202.1
		C199.1,142.9,196.7,145.4,196.7,148.5z"/>
	<path class="st0" d="M223.2,109.9c0,3,2.5,5.5,5.5,5.5h97.6c3,0,5.5-2.5,5.5-5.5s-2.5-5.5-5.5-5.5h-97.6
		C225.7,104.4,223.2,106.9,223.2,109.9z"/>
	<path class="st0" d="M200.2,338.5c-7.1,0-7.1,6.4,0,6.4c11.5,0,23.1,0,34.6,0c8.1,0,16.7,0.3,22.6-3.6c1.7,1.1,3.7,2,5.8,2.6
		c11.1,3.5,19-2.5,22.8-7.7c2.1,4.1,4.8,7.9,7.5,11.9c2.6,3.8,13.3,2.2,10.7-1.7c-3.1-4.4-6.2-8.9-8.3-13.4c-2-4.4-2.7-9-2.9-13.6
		c-0.2-3.5-9.7-4.5-10.9-0.9c-1.5,5-2.5,10.3-6,14.9c-3.5,4.7-9.8,7.5-13.7,0.5c-1.5-2.8-9.5-3.3-10.7,0c-1.3,3.9-5.5,4.5-11.5,4.5
		c-3.3,0-6.7,0-10,0C220.1,338.6,210.2,338.5,200.2,338.5L200.2,338.5z"/>
	<path class="st0" d="M60.4,162.9c-2.9,2.8-4.4,6.7-4.4,10.8v66.8c0,10,9.9,17.4,19.6,14.7v50.4c0,12.6,3.7,16.2,7.3,19.8
		c0.3,11.8,5,22.9,13.4,31.3c2.3,1.8,5.6,2.5,7.9,0.1c8.2-8.1,13.1-19.4,13.5-30.9c4.8-4.8,7.4-11.7,7.4-19.8v-43.6
		c-0.5-7.1-11.4-9.9-11.1-2.7v47.6c0,18.2-27.4,18.1-27.4,0.2c0-36.7,0-118.5,0-118.5l27.4,0.1c-0.1,24.8-0.1,49.1,0,74.3
		c0,7.3,11.1,6.9,11.1-0.1c-0.1-25.1-0.1-49.5,0-74.3c18.4-1.1,18.4-29.1,0-30.4v-8.1c0-5.2-2.8-9.8-7-12.4V127
		c0-22.9-35.6-23-35.6-0.1v11.1c-4.1,2.6-7,7.7-7,12.4v7.9h-4.2C67.2,158.6,63.3,160.1,60.4,162.9L60.4,162.9z M86.4,158.6v-7.9
		c0-0.9,0.4-1.9,1-2.6c0.5-0.5,1-0.8,1.6-0.9l22.1,0.1c1.5,0.4,2.6,1.8,2.6,3.4v8L86.4,158.6z M100.1,120.4c3.8,0,6.8,3,6.8,6.8v8.9
		L93.4,136v-9C93.4,123.7,96.8,120.4,100.1,120.4L100.1,120.4z M94.6,332c1.9,0.5,3.9,0.7,5.8,0.7c1.7,0,3.5-0.2,5.2-0.6
		c-1,4.3-2.9,8.4-5.5,12.1C97.6,340.5,95.7,336.5,94.6,332z M67,240.5v-66.8c0.3-2.6,1.6-4,4.2-4.2l52.7,0.3c5.3,0,5.4,8.4,0.1,8.4
		l-43-0.3c-3,0-5.6,2.5-5.6,5.6c0,4.8,0,57.1,0,57.1C75.5,246,67,245.7,67,240.5L67,240.5z"/>
</g>
</svg>
