<?xml version="1.0" encoding="utf-8"?>
<!-- Generator: Adobe Illustrator 24.1.1, SVG Export Plug-In . SVG Version: 6.00 Build 0)  -->
<svg version="1.1" id="Layer_1" xmlns="http://www.w3.org/2000/svg" xmlns:xlink="http://www.w3.org/1999/xlink" x="0px" y="0px"
	 viewBox="0 0 489.8 397.5" style="enable-background:new 0 0 489.8 397.5;" xml:space="preserve">
<style type="text/css">
	.st0{fill:#FFFFFF;stroke:#FFFFFF;stroke-width:5;stroke-miterlimit:10;}
</style>
<path class="st0" d="M291.1,388.3h-0.4c-2-0.1-3.8-1.4-4.6-3.2l-40.8-95.2c-1.2-2.7-0.1-5.9,2.6-7.1s5.9-0.1,7.1,2.6
	c0.1,0.1,0.1,0.2,0.1,0.3l36.6,85.4l17.8-29.7c1.2-2,3.5-3,5.8-2.5l33.8,7.5l-33.3-77.8c-1.2-2.8,0-5.9,2.8-7.1
	c2.8-1.2,5.9,0,7.1,2.8c0,0,0,0.1,0.1,0.1l37.5,87.5c1.1,2.8-0.1,5.9-2.9,7c-1,0.5-2.2,0.6-3.3,0.3l-40.3-9l-21.2,35.3
	C294.8,387.3,293,388.3,291.1,388.3z"/>
<path class="st0" d="M200.6,388.3c-1.9,0-3.6-1-4.7-2.6l-21.2-35.3l-40.2,8.9c-3,0.7-5.8-1.1-6.5-4.1c-0.3-1.1-0.1-2.3,0.3-3.3
	l37.5-87.5c1.2-2.8,4.4-3.9,7.1-2.8c2.7,1.1,3.9,4.3,2.8,7l-33.3,77.8l33.8-7.5c2.3-0.5,4.6,0.5,5.8,2.5l17.8,29.7l36.6-85.4
	c1-2.8,4.2-4.2,7-3c2.8,1,4.2,4.2,3,7c0,0.1-0.1,0.2-0.1,0.3l-40.8,95.2c-0.8,1.8-2.6,3.1-4.6,3.2L200.6,388.3z"/>
<path class="st0" d="M212.8,301.3c-1.9,0-3.8-0.2-5.6-0.7c-8.4-2.2-13.9-9-19.2-15.5c-2.9-4.1-6.4-7.6-10.5-10.5
	c-2.5-1.2-5-2.2-7.8-2.7c-2.2-0.5-4.5-0.9-6.8-1.2c-8.3-1.3-16.9-2.8-22.8-8.8c-6-6-7.4-14.6-8.8-22.8c-0.5-5-1.8-10-3.9-14.6
	c-2.9-4-6.5-7.6-10.5-10.5c-6.6-5.3-13.3-10.9-15.5-19.2c-1.2-8.1,0.1-16.4,3.8-23.7c2.2-4.8,3.5-9.8,3.9-15
	c-0.5-5.1-1.8-10.3-3.9-15c-3.7-7.3-5-15.6-3.8-23.7c2.2-8.4,9-13.9,15.5-19.2c4.1-2.9,7.6-6.4,10.5-10.5c2.1-4.6,3.4-9.5,3.9-14.6
	c0.5-8.3,3.5-16.3,8.8-22.9c6.5-5.2,14.5-8.3,22.9-8.8c5-0.5,10-1.8,14.6-3.9c4-2.9,7.5-6.5,10.5-10.5c5.3-6.6,10.9-13.3,19.2-15.6
	c8-2.2,16,0.9,23.8,3.8c4.7,2.2,9.7,3.5,15,3.9c5.1-0.5,10.2-1.8,15-4c7.3-3.7,15.6-5,23.8-3.8c4.1,1.1,7.8,3.3,10.9,6.4
	c2.2,2,2.4,5.4,0.3,7.6c-2,2.2-5.4,2.4-7.6,0.3c-1.8-1.8-4-3.1-6.4-3.9c-5.9-0.5-11.9,0.8-17.1,3.4c-5.9,2.7-12.3,4.3-18.8,4.7
	c-6.5-0.4-12.9-2-18.8-4.7c-5.2-2.8-11.2-3.9-17.1-3.4c-5.6,2.6-10.4,6.8-13.7,12c-3.6,5.1-8.2,9.5-13.4,13
	c-5.7,2.9-11.9,4.6-18.3,5.2c-6.1,0.3-12,2.3-17,5.7c-3.4,5-5.4,10.9-5.7,17c-0.7,6.4-2.4,12.6-5.2,18.3c-3.5,5.2-7.9,9.7-13,13.4
	c-5.2,3.3-9.3,8-12,13.6c-0.5,5.9,0.8,11.9,3.4,17.1c2.7,5.9,4.2,12.3,4.7,18.8c-0.4,6.5-2,12.9-4.7,18.8
	c-2.8,5.2-3.9,11.2-3.4,17.1c2.6,5.6,6.8,10.4,12,13.6c5.1,3.6,9.5,8.2,13,13.4c2.9,5.7,4.6,11.9,5.2,18.2c0.3,6.1,2.3,12,5.8,17
	c5,3.5,10.9,5.5,17,5.8c2.5,0.4,5,0.9,7.3,1.3c3.8,0.8,7.4,2,10.9,3.9c5.2,3.5,9.8,7.9,13.5,13.1c3.3,5.2,8,9.3,13.6,11.9
	c5.9,0.5,11.9-0.8,17.1-3.4c4.3-1.8,8.8-3.1,13.3-4.1c3.6-0.7,7.2-0.7,10.9,0c4.6,1,9,2.4,13.3,4.1c5.3,2.8,11.2,3.9,17.1,3.4
	c5.6-2.6,10.3-6.8,13.6-11.9c3.6-5.1,8.2-9.5,13.4-13.1c3.4-1.8,7-3.1,10.9-3.9c2.4-0.6,4.9-1,7.3-1.3c6.1-0.3,12-2.3,17-5.8
	c3.4-5,5.4-10.9,5.7-17c0.7-6.4,2.4-12.5,5.2-18.2c3.5-5.2,7.9-9.7,13-13.4c5.2-3.3,9.3-8,12-13.6c0.5-5.9-0.8-11.9-3.4-17.1
	c-2.7-5.9-4.2-12.3-4.7-18.8c0.4-6.6,2-13,4.7-19c0.6-1.5,1.1-3,1.7-4.6c1-2.9,4.1-4.3,6.9-3.3c2.9,1,4.3,4.1,3.3,6.9
	c-0.6,1.6-1.1,3.2-1.8,4.9c-2.2,4.8-3.5,9.9-4,15.1c0.5,5.1,1.8,10.3,3.9,15c3.7,7.3,5,15.6,3.8,23.7c-2.2,8.4-9,13.9-15.5,19.2
	c-4.1,2.9-7.6,6.4-10.5,10.5c-2.1,4.6-3.4,9.5-3.9,14.6c-1.3,8.3-2.8,16.8-8.8,22.8c-6.5,5.2-14.5,8.4-22.9,8.8
	c-2.3,0.4-4.6,0.8-6.8,1.2c-2.8,0.5-5.3,1.4-7.8,2.7c-4,2.9-7.5,6.4-10.5,10.5c-5.3,6.6-10.9,13.3-19.2,15.5
	c-8.1,1.2-16.4-0.1-23.7-3.8c-3.7-1.5-7.5-2.8-11.4-3.6c-2.3-0.5-4.8-0.5-7,0c-3.9,0.9-7.7,2.1-11.4,3.6
	C225.1,299.3,219,300.8,212.8,301.3z"/>
<path class="st0" d="M245.9,254.8c-54.1,0-97.9-43.8-97.9-97.9s43.8-97.9,97.9-97.9s97.9,43.8,97.9,97.9l0,0
	C343.7,211,300,254.7,245.9,254.8z M245.9,69.8c-48.1,0-87.1,39-87.1,87.1s39,87.1,87.1,87.1s87.1-39,87.1-87.1
	C332.9,108.9,294,69.9,245.9,69.8z"/>
<path class="st0" d="M275.9,205.5c-0.9,0-1.7-0.2-2.5-0.7l-27.5-14.5L218.3,205c-2.7,1.4-5.9,0.4-7.2-2.3c-0.6-1-0.8-2.3-0.6-3.4
	l5.2-30.7L193.6,147c-2.1-2.1-2.2-5.5-0.1-7.6c0.9-0.9,1.9-1.4,3-1.6l30.8-4.5l13.7-27.8c1.6-2.7,5-3.5,7.7-2c0.9,0.5,1.5,1.1,2,2
	l13.7,27.8l30.8,4.5c3,0.4,5,3.1,4.6,6.1c-0.2,1.1-0.8,2.3-1.6,3.1l-22.3,21.7l5.3,30.6c0.5,3-1.4,5.7-4.4,6.2
	C276.5,205.5,276.2,205.5,275.9,205.5L275.9,205.5z M245.9,179c0.9,0,1.7,0.2,2.5,0.6l20.3,10.7l-3.9-22.7c-0.3-1.7,0.3-3.5,1.5-4.8
	l16.5-16l-22.8-3.3c-1.7-0.3-3.2-1.3-4.1-3l-10.2-20.6l-10.2,20.6c-0.8,1.6-2.3,2.7-4.1,3l-22.8,3.3l16.5,16c1.2,1.2,1.8,3,1.5,4.8
	l-3.9,22.7l20.3-10.7C244.1,179.2,245,179,245.9,179z"/>
<path class="st0" d="M260.9,296.7c-3.7-1.5-7.5-2.8-11.4-3.6c-2.3-0.5-4.8-0.5-7,0c-3.9,0.9-7.7,2.1-11.4,3.6
	c-7.3,3.7-15.6,5-23.7,3.8c-8.4-2.2-13.9-9-19.2-15.5c-2.9-4.1-6.4-7.6-10.5-10.5c-2.5-1.2-5.1-2.2-7.8-2.7
	c-2.2-0.5-4.5-0.9-6.8-1.2c-8.4-0.5-16.4-3.5-22.9-8.8c-6-6-7.3-14.6-8.8-22.8c-0.5-5-1.8-10-3.9-14.6c-2.9-4-6.5-7.6-10.5-10.5
	c-6.6-5.3-13.3-10.9-15.5-19.2c-1.2-8.1,0.1-16.4,3.8-23.7c2.2-4.8,3.5-9.8,3.9-15c-0.5-5.2-1.8-10.3-4-15.1
	c-0.6-1.6-1.2-3.2-1.8-4.9c-1-2.9,0.5-5.9,3.3-6.9c2.9-1,5.9,0.5,6.9,3.3c0.6,1.5,1.1,3,1.7,4.6c2.7,6,4.3,12.4,4.7,19
	c-0.4,6.5-2,12.9-4.7,18.8c-2.8,5.2-3.9,11.2-3.4,17.1c2.6,5.6,6.8,10.4,12,13.6c5.1,3.6,9.5,8.2,13,13.4c2.9,5.7,4.6,11.9,5.2,18.2
	c0.3,6.1,2.3,11.9,5.7,17c5,3.5,10.9,5.5,17,5.8c2.5,0.4,5,0.8,7.3,1.3c3.8,0.8,7.4,2,10.9,3.9c5.2,3.5,9.8,7.9,13.4,13.1
	c3.3,5.2,8,9.3,13.6,11.9c5.9,0.5,11.9-0.8,17.1-3.4c4.3-1.8,8.8-3.1,13.3-4.1c3.6-0.7,7.2-0.7,10.9,0c4.6,1,9,2.4,13.3,4.1
	c5.2,2.8,11.2,3.9,17.1,3.4c5.6-2.6,10.3-6.8,13.6-11.9c3.7-5.1,8.3-9.5,13.5-13.1c3.4-1.8,7-3.1,10.9-3.9c2.4-0.5,4.9-1,7.3-1.3
	c6.1-0.3,11.9-2.3,17-5.8c3.5-5,5.5-10.9,5.8-17c0.7-6.3,2.4-12.5,5.2-18.2c3.5-5.2,7.9-9.7,13.1-13.4c5.2-3.3,9.3-8,12-13.6
	c0.5-5.9-0.8-11.9-3.4-17.1c-2.7-5.9-4.2-12.3-4.7-18.8c0.4-6.5,2-12.9,4.7-18.8c2.8-5.2,3.9-11.2,3.4-17.1
	c-2.6-5.6-6.8-10.4-12-13.6c-5.1-3.7-9.5-8.2-13.1-13.4c-2.9-5.7-4.6-11.9-5.2-18.3c-0.3-6.1-2.3-11.9-5.7-17
	c-5-3.4-10.9-5.4-17-5.7c-6.4-0.7-12.6-2.4-18.3-5.2c-5.2-3.5-9.7-7.9-13.4-13c-3.3-5.2-8.1-9.3-13.7-12c-5.9-0.5-11.9,0.8-17.1,3.4
	c-5.9,2.7-12.3,4.2-18.8,4.7c-6.5-0.4-12.9-2-18.8-4.7c-5.3-2.8-11.2-3.9-17.1-3.4c-2.4,0.8-4.6,2.1-6.4,3.9c-2.2,2-5.6,1.9-7.6-0.3
	s-1.9-5.6,0.3-7.6c3-3,6.8-5.1,10.9-6.4c8.1-1.2,16.5,0,23.8,3.8c4.8,2.2,9.8,3.5,15,4c5.1-0.5,10.2-1.8,15-3.9
	c7.7-3,15.8-5.9,23.8-3.8c8.4,2.2,13.9,9,19.2,15.6c2.9,4,6.4,7.6,10.5,10.5c4.6,2.1,9.5,3.4,14.6,3.9c8.4,0.5,16.4,3.5,22.9,8.8
	c5.2,6.5,8.3,14.5,8.8,22.9c0.5,5,1.8,10,3.9,14.6c2.9,4,6.5,7.6,10.5,10.5c6.6,5.3,13.3,10.9,15.5,19.2c1.2,8.1-0.1,16.4-3.8,23.7
	c-2.2,4.8-3.5,9.8-3.9,15c0.5,5.1,1.8,10.3,3.9,15c3.7,7.3,5,15.6,3.8,23.7c-2.2,8.4-9,13.9-15.5,19.2c-4.1,2.9-7.6,6.4-10.5,10.5
	c-2.1,4.6-3.4,9.5-3.9,14.6c-1.3,8.3-2.8,16.8-8.8,22.8c-6,6-14.6,7.4-22.8,8.8c-2.3,0.4-4.6,0.8-6.8,1.2c-2.8,0.5-5.3,1.4-7.8,2.7
	c-4.1,2.9-7.6,6.4-10.5,10.5c-5.3,6.6-10.9,13.3-19.2,15.5c-1.8,0.5-3.7,0.7-5.6,0.7C272.7,300.8,266.6,299.3,260.9,296.7z"/>
</svg>
